<svg width="92" height="93" viewBox="0 0 92 93" fill="none" xmlns="http://www.w3.org/2000/svg">
<path d="M26.336 75.904H36.272V17.44H18.848V35.44H5.6V5.632H86.384V35.44H73.28V17.44H56V75.904H66.08V88H26.336V75.904Z" fill="black"/>
<path d="M26.336 75.904V70.904H21.336V75.904H26.336ZM36.272 75.904V80.904H41.272V75.904H36.272ZM36.272 17.44H41.272V12.44H36.272V17.44ZM18.848 17.44V12.44H13.848V17.44H18.848ZM18.848 35.44V40.44H23.848V35.44H18.848ZM5.6 35.44H0.6V40.44H5.6V35.44ZM5.6 5.632V0.631996H0.6V5.632H5.6ZM86.384 5.632H91.384V0.631996H86.384V5.632ZM86.384 35.44V40.44H91.384V35.44H86.384ZM73.28 35.44H68.28V40.44H73.28V35.44ZM73.28 17.44H78.28V12.44H73.28V17.44ZM56 17.44V12.44H51V17.44H56ZM56 75.904H51V80.904H56V75.904ZM66.08 75.904H71.08V70.904H66.08V75.904ZM66.08 88V93H71.08V88H66.08ZM26.336 88H21.336V93H26.336V88ZM26.336 80.904H36.272V70.904H26.336V80.904ZM41.272 75.904V17.44H31.272V75.904H41.272ZM36.272 12.44H18.848V22.44H36.272V12.44ZM13.848 17.44V35.44H23.848V17.44H13.848ZM18.848 30.44H5.6V40.44H18.848V30.44ZM10.6 35.44V5.632H0.6V35.44H10.6ZM5.6 10.632H86.384V0.631996H5.6V10.632ZM81.384 5.632V35.44H91.384V5.632H81.384ZM86.384 30.44H73.28V40.44H86.384V30.44ZM78.28 35.44V17.44H68.28V35.44H78.28ZM73.28 12.44H56V22.44H73.28V12.44ZM51 17.44V75.904H61V17.44H51ZM56 80.904H66.08V70.904H56V80.904ZM61.08 75.904V88H71.08V75.904H61.08ZM66.08 83H26.336V93H66.08V83ZM31.336 88V75.904H21.336V88H31.336Z" fill="#A4A4A4"/>
</svg>
